<?xml version="1.0" encoding="UTF-8" standalone="no" ?>
<!DOCTYPE svg PUBLIC "-//W3C//DTD SVG 1.1//EN" "http://www.w3.org/Graphics/SVG/1.1/DTD/svg11.dtd">
<svg xmlns="http://www.w3.org/2000/svg" xmlns:xlink="http://www.w3.org/1999/xlink" version="1.1" width="1080" height="1080" viewBox="0 0 1080 1080" xml:space="preserve">
<desc>Created with Fabric.js 5.2.4</desc>
<defs>
</defs>
<g transform="matrix(1 0 0 1 540 540)" id="d624ea7a-38d3-421f-b3f3-78654ad1dec1"  >
</g>
<g transform="matrix(1 0 0 1 540 540)" id="afdac9d5-5ff7-4c0c-88a9-5adf5d18c6a3"  >
<rect style="stroke: none; stroke-width: 1; stroke-dasharray: none; stroke-linecap: butt; stroke-dashoffset: 0; stroke-linejoin: miter; stroke-miterlimit: 4; fill: rgb(255,255,255); fill-rule: nonzero; opacity: 1; visibility: hidden;" vector-effect="non-scaling-stroke"  x="-540" y="-540" rx="0" ry="0" width="1080" height="1080" />
</g>
<g transform="matrix(1 0 0 1 540 540)"  >
<path style="stroke: rgb(0,0,0); stroke-width: 0; stroke-dasharray: none; stroke-linecap: butt; stroke-dashoffset: 0; stroke-linejoin: miter; stroke-miterlimit: 4; fill: rgb(225,237,235); fill-rule: nonzero; opacity: 1;" vector-effect="non-scaling-stroke"  transform=" translate(-720, -239.74)" d="M 0 192 L 60 181.3 C 120 171 240 149 360 165.3 C 480 181 600 235 720 256 C 840 277 960 267 1080 250.7 C 1200 235 1320 213 1380 202.7 L 1440 192 L 1440 320 L 1380 320 C 1320 320 1200 320 1080 320 C 960 320 840 320 720 320 C 600 320 480 320 360 320 C 240 320 120 320 60 320 L 0 320 Z" stroke-linecap="round" />
</g>
</svg>